# xmcd
#
# Track frame offsets:
# 150
# 18424
# 52760
# 77528
# 119584
# 172979
# 205334
# 231347
# 264560
# 274428
# 303425
#
# Disc length: 4401 seconds
#
#
# Revision: 2
# Processed by: cddbd v1.5.2PL0 Copyright (c) Steve Scherf et al.
# Submitted via: FreeRIP 2.96 
#
DISCID=93112f0b
DTITLE=Belmondo - Belmondo - Hymne au Soleil
DYEAR=2004
DGENRE=Jazz
TTITLE0=Notre Père - M. Duruflé
TTITLE1=Vieille prière Bouddhique - Lili Boulanger
TTITLE2=Tantum Ergo - M. Duruflé
TTITLE3=Hymne au Soleil - Lili Boulanger
TTITLE4=Pie Jesù - Lili Boulanger
TTITLE5=Reflets - Lili Boulanger
TTITLE6=Après un Rêve - G. Fauré
TTITLE7=Scherzo Op. 2 - M. Duruflé
TTITLE8=Ubi Caritas - M. Duruflé
TTITLE9=Sous Bois - Lili Boulanger
TTITLE10=Ma Mère l'Oye
EXTD=YEAR: 2004
EXTT0=
EXTT1=
EXTT2=
EXTT3=
EXTT4=
EXTT5=
EXTT6=
EXTT7=
EXTT8=
EXTT9=
EXTT10=
PLAYORDER=
